<svg id="Capa_1" data-name="Capa 1" xmlns="http://www.w3.org/2000/svg" viewBox="0 0 1805.39 431.63"><defs><style>.cls-1{fill:none;stroke:#e81a1a;stroke-miterlimit:10;stroke-width:8px;}.cls-2{fill:#1c582b;}.cls-3{fill:#e81a1a;}.cls-4{fill:#fff;}</style></defs><title>band_logo_reggio_calabria</title><line class="cls-1" x1="161.77" y1="61.54" x2="6.16" y2="358.42"/><path class="cls-1" d="M124.71,330.38C212.2,290,303.58,281.15,399.19,306.61c72.07,30,60.5,63.67,0,99.42-52.69,38.31-157.71,66.43-274.48,92.25l324.19,85" transform="translate(-71 -288.3)"/><path class="cls-1" d="M1160.14,541.45C472.85,692.74,1477.85,70.29,1268.2,396.64" transform="translate(-71 -288.3)"/><path class="cls-1" d="M1274.69,483.09C1225,472.29,1199,560.9,1266,502.54q3.24,38.9,36.74,0" transform="translate(-71 -288.3)"/><path class="cls-1" d="M1482.17,483.09c-49.71-10.81-75.64,77.81-8.64,19.45q3.24,38.9,36.74,0" transform="translate(-71 -288.3)"/><path class="cls-1" d="M1845.27,483.09c-49.71-10.81-75.64,77.81-8.64,19.45q3.24,38.9,36.74,0" transform="translate(-71 -288.3)"/><path class="cls-1" d="M1385.76,396.64l-34.34,85.53q-33.23,70.76,40.52,20.22" transform="translate(-71 -288.3)"/><path class="cls-1" d="M1590.24,396.64l-37.82,85.53c-26.24,41.3,0,50.63,18.91,27.94,11.57-15.75,10-29.17,0-41.06" transform="translate(-71 -288.3)"/><path class="cls-1" d="M1738,487.62c-30.21,41-8.92,51.93,26.21,14.76" transform="translate(-71 -288.3)"/><line class="cls-1" x1="1575.02" y1="193.87" x2="1553.82" y2="233.87"/><path class="cls-1" d="M1678.44,488.09q-20.87-3.1-41.74,14.3" transform="translate(-71 -288.3)"/><path class="cls-1" d="M1756.25,479c-3.65-9.46-13.78-9.46-18.24-18.93" transform="translate(-71 -288.3)"/><path class="cls-1" d="M733.31,487.13c-30.21,41-8.92,51.93,26.21,14.76" transform="translate(-71 -288.3)"/><path class="cls-1" d="M751.54,478.48c-3.65-9.46-13.78-9.46-18.24-18.93" transform="translate(-71 -288.3)"/><path class="cls-1" d="M434.26,505.87c2.86,11.48-48.22,32.38-63.84,15.24-8.1-10.54-5.51-22,11.75-32,10.85-5,20.33-5.27,28.77-2,11.79,10.29-2.7,15.11-21.48,18.74" transform="translate(-71 -288.3)"/><path class="cls-1" d="M526.32,478.48c-53.68-4.38-87.19,78.4-16.9,19.79-15.31,46.58-28.28,86.29-49.74,105.51-16.72,17.83-98.44,28.79-59.49-14.59,41.92-33,100.76-63.29,154.07-87" transform="translate(-71 -288.3)"/><path class="cls-1" d="M459.68,603.78c-16.72,17.83-98.44,28.79-59.49-14.59" transform="translate(-71 -288.3)"/><path class="cls-1" d="M648.59,478c-53.68-4.38-87.19,78.4-16.9,19.79C616.38,544.36,603.41,584.08,582,603.3c-16.72,17.83-98.44,28.79-59.49-14.59,41.92-33,100.76-63.29,154.07-87" transform="translate(-71 -288.3)"/><path class="cls-1" d="M850.76,488.06c-99.22-7.47-41.06,91,0,0" transform="translate(-71 -288.3)"/><rect class="cls-2" y="408.16" width="633.96" height="23.47"/><rect class="cls-3" x="1176.34" y="408.16" width="626.03" height="23.47"/><rect class="cls-4" x="633.96" y="408.16" width="559.79" height="23.47"/></svg>