<svg id="Capa_1" data-name="Capa 1" xmlns="http://www.w3.org/2000/svg" viewBox="0 0 1073.78 1050.67"><defs><style>.cls-1{stroke:#056934;}.cls-1,.cls-2{stroke-miterlimit:10;stroke-width:8px;}.cls-2{fill:none;stroke:#e81a1a;}.cls-3{fill:#1c582b;}.cls-4{fill:#e81a1a;}.cls-5{fill:#fff;}</style></defs><title>isologo_reggio_calabria_final</title><path class="cls-1" d="M436.4,504C423.72,169.94,540-17,1003.14,36.35,1350,66,1515.34,165,1500.33,504c9.72,414.18-184.45,580.72-528.69,565C568.53,1072.57,428.09,889.14,436.4,504Z" transform="translate(-431.49 -23.33)"/><path class="cls-1" d="M459.35,505.89C447.22,186.25,556,7,1001.64,58.42,1345,89,1491.74,181.52,1477.39,505.89c9.3,396.31-176.49,555.67-505.89,540.62C585.78,1049.94,451.4,874.42,459.35,505.89Z" transform="translate(-431.49 -23.33)"/><line class="cls-2" x1="338.26" y1="296.38" x2="213.09" y2="535.19"/><path class="cls-2" d="M682.83,304.07c70.38-32.47,143.88-39.6,220.78-19.12,58,24.15,48.66,51.21,0,80-42.38,30.82-126.86,53.43-220.78,74.2L943.6,507.47" transform="translate(-431.49 -23.33)"/><path class="cls-2" d="M786.27,749.11c-552.83,121.69,255.55-379,86.92-116.48" transform="translate(-431.49 -23.33)"/><path class="cls-2" d="M878.4,702.18c-40-8.69-60.85,62.58-7,15.65q2.61,31.29,29.55,0" transform="translate(-431.49 -23.33)"/><path class="cls-2" d="M1045.3,702.18c-40-8.69-60.85,62.58-7,15.65q2.61,31.29,29.55,0" transform="translate(-431.49 -23.33)"/><path class="cls-2" d="M1337.35,702.18c-40-8.69-60.85,62.58-7,15.65q2.61,31.29,29.55,0" transform="translate(-431.49 -23.33)"/><path class="cls-2" d="M967.74,632.64l-27.62,68.79q-26.73,56.92,32.6,16.26" transform="translate(-431.49 -23.33)"/><path class="cls-2" d="M1132.22,632.64l-30.42,68.79c-21.11,33.22,0,40.73,15.21,22.47,9.3-12.67,8.08-23.46,0-33" transform="translate(-431.49 -23.33)"/><path class="cls-2" d="M1251.08,705.82c-24.3,33-7.17,41.77,21.08,11.87" transform="translate(-431.49 -23.33)"/><line class="cls-2" x1="745.6" y1="678.1" x2="728.54" y2="710.27"/><path class="cls-2" d="M1203.17,706.2q-16.79-2.49-33.57,11.5" transform="translate(-431.49 -23.33)"/><path class="cls-2" d="M1265.75,698.86c-2.93-7.61-11.08-7.61-14.67-15.23" transform="translate(-431.49 -23.33)"/><path class="cls-2" d="M1172.36,430.16c-24.3,33-7.17,41.77,21.08,11.87" transform="translate(-431.49 -23.33)"/><path class="cls-2" d="M1187,423.2c-2.93-7.61-11.08-7.61-14.67-15.23" transform="translate(-431.49 -23.33)"/><path class="cls-2" d="M931.82,445.23c2.3,9.23-38.79,26-51.35,12.26-6.52-8.47-4.43-17.72,9.45-25.75,8.73-4,16.35-4.24,23.14-1.58,9.48,8.28-2.17,12.15-17.28,15.07" transform="translate(-431.49 -23.33)"/><path class="cls-2" d="M1005.86,423.2c-43.18-3.52-70.13,63.06-13.59,15.92-12.32,37.46-22.75,69.41-40,84.87-13.45,14.34-79.18,23.16-47.85-11.73,33.72-26.51,81-50.91,123.93-70" transform="translate(-431.49 -23.33)"/><path class="cls-2" d="M952.27,524c-13.45,14.34-79.18,23.16-47.85-11.73" transform="translate(-431.49 -23.33)"/><path class="cls-2" d="M1104.21,422.8c-43.18-3.52-70.13,63.06-13.59,15.92-12.32,37.46-22.75,69.41-40,84.87-13.45,14.34-79.18,23.16-47.85-11.73,33.72-26.51,81-50.91,123.93-70" transform="translate(-431.49 -23.33)"/><path class="cls-2" d="M1266.83,430.9c-79.81-6-33,73.2,0,0" transform="translate(-431.49 -23.33)"/><rect class="cls-3" x="395.63" y="769.24" width="97.79" height="23.47"/><rect class="cls-4" x="588.16" y="769.24" width="97.79" height="23.47"/><rect class="cls-5" x="493.41" y="769.24" width="97.79" height="23.47"/><path class="cls-5" d="M726.38,878.77h5l6.48,10.48,6.3-10.48h5l-11.41,18.81Z" transform="translate(-431.49 -23.33)"/><path class="cls-5" d="M774.84,888.57H755.51a6,6,0,0,0,2.87,4.08,9.61,9.61,0,0,0,4.87,1.29,9.32,9.32,0,0,0,6.81-2.7l3.49,2.11q-3.93,4.06-10.52,4.07a13,13,0,0,1-8.46-2.77,8.53,8.53,0,0,1-3.4-6.88,8.41,8.41,0,0,1,3.45-6.67,13.81,13.81,0,0,1,16.79,0A9,9,0,0,1,774.84,888.57ZM756,885.51h13.84a7.51,7.51,0,0,0-6.81-3.74Q758.12,881.78,756,885.51Z" transform="translate(-431.49 -23.33)"/><path class="cls-5" d="M779.46,896.9V878.77h4.67v3a18.35,18.35,0,0,1,3.73-2.67,8.17,8.17,0,0,1,3.73-.85,8.55,8.55,0,0,1,5.26,1.63A4.77,4.77,0,0,1,799,883.8v13.1h-4.78v-12a3,3,0,0,0-1.19-2.44,4.67,4.67,0,0,0-3-1,5.83,5.83,0,0,0-4.12,1.62,5.14,5.14,0,0,0-1.73,3.9v9.87h-4.72Z" transform="translate(-431.49 -23.33)"/><path class="cls-5" d="M824,868.38h4.72V896.9H824v-3.78a10.74,10.74,0,0,1-8.85,4.29,11,11,0,0,1-7.59-2.83,8.83,8.83,0,0,1-3.16-6.81,8.59,8.59,0,0,1,3.22-6.69,11.29,11.29,0,0,1,7.67-2.8,10.73,10.73,0,0,1,5,1.19,10.15,10.15,0,0,1,3.68,3.1V868.38Zm0.55,19.42a5.3,5.3,0,0,0-2.23-4.23,8.21,8.21,0,0,0-5.31-1.79,8.46,8.46,0,0,0-5.41,1.75,5.27,5.27,0,0,0-2.21,4.27,5.32,5.32,0,0,0,2.26,4.23,8.14,8.14,0,0,0,5.25,1.81,8.47,8.47,0,0,0,5.42-1.76A5.29,5.29,0,0,0,824.52,887.8Z" transform="translate(-431.49 -23.33)"/><path class="cls-5" d="M835.11,872.81a2.56,2.56,0,0,1,1.1-2.05,4.08,4.08,0,0,1,2.61-.87,4,4,0,0,1,2.57.87,2.5,2.5,0,0,1,0,4.12,4,4,0,0,1-2.57.86,4.11,4.11,0,0,1-2.61-.86A2.55,2.55,0,0,1,835.11,872.81Zm1.35,6h4.72V896.9h-4.72V878.77Z" transform="translate(-431.49 -23.33)"/><path class="cls-5" d="M849.86,873.5h4.78v5.27h4.72v3.49h-4.72V896.9h-4.78V882.26H846.1v-3.54h3.76V873.5Z" transform="translate(-431.49 -23.33)"/><path class="cls-5" d="M882.64,878.77h4.78V896.9h-4.78v-3.6A10.9,10.9,0,0,1,874,897.4a11.13,11.13,0,0,1-7.65-2.81,8.8,8.8,0,0,1-3.17-6.83,8.65,8.65,0,0,1,3.2-6.65,10.93,10.93,0,0,1,7.51-2.85,11.4,11.4,0,0,1,5.05,1.16,9.53,9.53,0,0,1,3.71,3v-3.69Zm0.66,9.12a5.28,5.28,0,0,0-2.23-4.25,8.87,8.87,0,0,0-10.62,0,5.14,5.14,0,0,0-2.26,4.13,5.47,5.47,0,0,0,2.2,4.37,8.15,8.15,0,0,0,5.34,1.8,8.26,8.26,0,0,0,5.34-1.79A5.32,5.32,0,0,0,883.3,887.89Z" transform="translate(-431.49 -23.33)"/><path class="cls-5" d="M929.1,868.38h4.72V896.9h-4.67v-3.78a10.74,10.74,0,0,1-8.85,4.29,11,11,0,0,1-7.59-2.83,8.83,8.83,0,0,1-3.16-6.81,8.59,8.59,0,0,1,3.22-6.69,11.29,11.29,0,0,1,7.67-2.8,10.73,10.73,0,0,1,5,1.19,10.15,10.15,0,0,1,3.68,3.1V868.38Zm0.55,19.42a5.3,5.3,0,0,0-2.23-4.23,8.21,8.21,0,0,0-5.31-1.79,8.46,8.46,0,0,0-5.41,1.75,5.27,5.27,0,0,0-2.21,4.27,5.32,5.32,0,0,0,2.26,4.23,8.14,8.14,0,0,0,5.25,1.81,8.47,8.47,0,0,0,5.42-1.76A5.29,5.29,0,0,0,929.65,887.8Z" transform="translate(-431.49 -23.33)"/><path class="cls-5" d="M940.25,872.81a2.56,2.56,0,0,1,1.1-2.05,4.08,4.08,0,0,1,2.61-.87,4,4,0,0,1,2.57.87,2.5,2.5,0,0,1,0,4.12,4,4,0,0,1-2.57.86,4.11,4.11,0,0,1-2.61-.86A2.55,2.55,0,0,1,940.25,872.81Zm1.35,6h4.72V896.9h-4.72V878.77Z" transform="translate(-431.49 -23.33)"/><path class="cls-5" d="M974.35,878.77v3.65a10.87,10.87,0,0,1,8.77-4.15,11,11,0,0,1,7.55,2.8,8.64,8.64,0,0,1,3.17,6.69,8.8,8.8,0,0,1-3.21,6.79,11,11,0,0,1-7.57,2.86,11.55,11.55,0,0,1-4.84-1.05,9.79,9.79,0,0,1-3.82-3.05V905.4h-4.78V878.77h4.72Zm14.5,9a5.25,5.25,0,0,0-2.25-4.19,8.23,8.23,0,0,0-5.29-1.79,8.41,8.41,0,0,0-5.36,1.78,5.23,5.23,0,0,0-2.26,4.2,5.42,5.42,0,0,0,2.23,4.31,8.08,8.08,0,0,0,5.28,1.82,8.36,8.36,0,0,0,5.4-1.8A5.39,5.39,0,0,0,988.85,887.75Z" transform="translate(-431.49 -23.33)"/><path class="cls-5" d="M1005.32,878.77v3.73a12.42,12.42,0,0,1,3.12-3.24,7.12,7.12,0,0,1,4-1,10.73,10.73,0,0,1,2,.26l-1.46,3.82a14.7,14.7,0,0,0-1.81-.22,6.14,6.14,0,0,0-4.05,1.35,4.2,4.2,0,0,0-1.63,3.37v10h-4.78V878.77h4.67Z" transform="translate(-431.49 -23.33)"/><path class="cls-5" d="M1016.33,887.75q0-3.71,3.67-6.6a13.21,13.21,0,0,1,8.42-2.89,13.49,13.49,0,0,1,8.54,2.85q3.65,2.84,3.65,6.65a8.53,8.53,0,0,1-3.58,6.73,12.75,12.75,0,0,1-8.28,2.91,13.76,13.76,0,0,1-8.72-2.88Q1016.33,891.64,1016.33,887.75Zm19.66,0a5,5,0,0,0-2.2-4,8.26,8.26,0,0,0-5.22-1.71,8.48,8.48,0,0,0-5.34,1.73,5.09,5.09,0,0,0-2.24,4.13,5,5,0,0,0,2.27,4,8.55,8.55,0,0,0,5.31,1.72,8.11,8.11,0,0,0,5.19-1.76A5.14,5.14,0,0,0,1036,887.77Z" transform="translate(-431.49 -23.33)"/><path class="cls-5" d="M1059.39,880.92l-3.19,2.24a18.13,18.13,0,0,0-2.14-1.07,5.76,5.76,0,0,0-2.14-.36q-2.91,0-2.91,1.71,0,1.23,3.69,2.39a15.61,15.61,0,0,1,5.31,2.54,4.24,4.24,0,0,1,1.62,3.34,4.89,4.89,0,0,1-2.33,4,9.08,9.08,0,0,1-5.49,1.7,9.94,9.94,0,0,1-7.88-3.56l3.76-1.45a6.62,6.62,0,0,0,4.12,1.54,5.06,5.06,0,0,0,2.59-.65,1.82,1.82,0,0,0,1.11-1.5q0-1.52-3.9-2.73a16.75,16.75,0,0,1-5.4-2.45,3.83,3.83,0,0,1-1.5-3.06,4.47,4.47,0,0,1,2.13-3.77,9,9,0,0,1,5.34-1.5A13.35,13.35,0,0,1,1059.39,880.92Z" transform="translate(-431.49 -23.33)"/><path class="cls-5" d="M1081.43,891.36v4.37a17,17,0,0,1-7.08,1.67,12.77,12.77,0,0,1-8.22-2.82q-3.53-2.82-3.53-6.54a8.57,8.57,0,0,1,3.51-7,13.77,13.77,0,0,1,8.81-2.78,17.72,17.72,0,0,1,6.51,1.32v4.26a15,15,0,0,0-6.81-1.85,8.4,8.4,0,0,0-5.19,1.67,4.83,4.83,0,0,0-2.22,3.91,5.31,5.31,0,0,0,2.09,4.25,7.75,7.75,0,0,0,5.11,1.72A14.86,14.86,0,0,0,1081.43,891.36Z" transform="translate(-431.49 -23.33)"/><path class="cls-5" d="M1085.2,872.81a2.56,2.56,0,0,1,1.1-2.05,4.08,4.08,0,0,1,2.61-.87,4,4,0,0,1,2.57.87,2.5,2.5,0,0,1,0,4.12,4,4,0,0,1-2.57.86,4.11,4.11,0,0,1-2.61-.86A2.55,2.55,0,0,1,1085.2,872.81Zm1.34,6h4.72V896.9h-4.72V878.77Z" transform="translate(-431.49 -23.33)"/><path class="cls-5" d="M1097.58,878.77h4.78V889q0,4.72,5.19,4.72a5.12,5.12,0,0,0,3.65-1.26,4.52,4.52,0,0,0,1.34-3.46V878.77h4.72V889.6a6.85,6.85,0,0,1-2.77,5.6,12.56,12.56,0,0,1-14.2,0,7,7,0,0,1-2.72-5.74v-10.7Z" transform="translate(-431.49 -23.33)"/><path class="cls-5" d="M1124.57,873.5h4.78v5.27h4.72v3.49h-4.72V896.9h-4.78V882.26h-3.76v-3.54h3.76V873.5Z" transform="translate(-431.49 -23.33)"/><path class="cls-5" d="M1139.81,873.5h4.78v5.27h4.72v3.49h-4.72V896.9h-4.78V882.26H1136v-3.54h3.76V873.5Z" transform="translate(-431.49 -23.33)"/><path class="cls-5" d="M1152.25,887.75q0-3.71,3.67-6.6a13.21,13.21,0,0,1,8.42-2.89,13.49,13.49,0,0,1,8.54,2.85q3.65,2.84,3.65,6.65a8.53,8.53,0,0,1-3.58,6.73,12.75,12.75,0,0,1-8.28,2.91,13.76,13.76,0,0,1-8.72-2.88Q1152.25,891.64,1152.25,887.75Zm19.66,0a5,5,0,0,0-2.2-4,8.26,8.26,0,0,0-5.22-1.71,8.48,8.48,0,0,0-5.34,1.73,5.09,5.09,0,0,0-2.24,4.13,5,5,0,0,0,2.27,4,8.55,8.55,0,0,0,5.31,1.72,8.11,8.11,0,0,0,5.19-1.76A5.14,5.14,0,0,0,1171.91,887.77Z" transform="translate(-431.49 -23.33)"/><path class="cls-5" d="M1219.76,888.57h-19.33a6,6,0,0,0,2.87,4.08,9.61,9.61,0,0,0,4.87,1.29,9.32,9.32,0,0,0,6.81-2.7l3.49,2.11q-3.93,4.06-10.52,4.07a13,13,0,0,1-8.46-2.77,8.53,8.53,0,0,1-3.41-6.88,8.41,8.41,0,0,1,3.45-6.67,13.81,13.81,0,0,1,16.79,0A9,9,0,0,1,1219.76,888.57Zm-18.83-3.05h13.84a7.5,7.5,0,0,0-6.81-3.74Q1203,881.78,1200.93,885.51Z" transform="translate(-431.49 -23.33)"/><path class="cls-5" d="M872.36,922.66v3.87a7.9,7.9,0,0,0-3.6-1.12,2.61,2.61,0,0,0-2,.75,2.88,2.88,0,0,0-.71,2.08v4.54h6.29v3.49h-6.29V950.9h-4.78V936.26h-4.17v-3.49h4.17v-4.28a6.4,6.4,0,0,1,2-4.93,7.52,7.52,0,0,1,5.31-1.84A9.4,9.4,0,0,1,872.36,922.66Z" transform="translate(-431.49 -23.33)"/><path class="cls-5" d="M875,941.75q0-3.71,3.67-6.6a13.22,13.22,0,0,1,8.42-2.89,13.49,13.49,0,0,1,8.54,2.85q3.65,2.84,3.65,6.65a8.53,8.53,0,0,1-3.58,6.73,12.75,12.75,0,0,1-8.28,2.91,13.76,13.76,0,0,1-8.72-2.88Q875,945.64,875,941.75Zm19.66,0a5,5,0,0,0-2.2-4,8.26,8.26,0,0,0-5.22-1.71,8.48,8.48,0,0,0-5.34,1.73,5.09,5.09,0,0,0-2.24,4.13,5,5,0,0,0,2.27,4,8.55,8.55,0,0,0,5.31,1.72,8.11,8.11,0,0,0,5.19-1.76A5.13,5.13,0,0,0,894.68,941.77Z" transform="translate(-431.49 -23.33)"/><path class="cls-5" d="M909.73,932.77v3.73a12.41,12.41,0,0,1,3.12-3.24,7.11,7.11,0,0,1,4-1,10.71,10.71,0,0,1,2,.26l-1.46,3.82a14.7,14.7,0,0,0-1.81-.22,6.14,6.14,0,0,0-4,1.35,4.2,4.2,0,0,0-1.63,3.37v10h-4.78V932.77h4.67Z" transform="translate(-431.49 -23.33)"/><path class="cls-5" d="M923.82,950.9V932.77h4.72v2.79a13,13,0,0,1,3.2-2.5,7.49,7.49,0,0,1,3.5-.79,7.75,7.75,0,0,1,4.05.9,7,7,0,0,1,2.48,2.88,13.54,13.54,0,0,1,3.46-2.88,8,8,0,0,1,3.87-.9,7.09,7.09,0,0,1,4.66,1.62,4.84,4.84,0,0,1,2,3.83V950.9h-4.78V938.7q0-3-3.72-3a4.79,4.79,0,0,0-3.59,1.54,5.28,5.28,0,0,0-1.47,3.8v9.87h-4.78V939.21q0-3.56-3.65-3.56A5.11,5.11,0,0,0,930,937.1a4.77,4.77,0,0,0-1.51,3.58V950.9h-4.72Z" transform="translate(-431.49 -23.33)"/><path class="cls-5" d="M980.84,932.77h4.78V950.9h-4.78v-3.6a10.9,10.9,0,0,1-8.65,4.11,11.13,11.13,0,0,1-7.65-2.81,8.8,8.8,0,0,1-3.17-6.83,8.66,8.66,0,0,1,3.2-6.65,10.94,10.94,0,0,1,7.51-2.85,11.4,11.4,0,0,1,5.05,1.16,9.53,9.53,0,0,1,3.71,3v-3.69Zm0.66,9.12a5.28,5.28,0,0,0-2.23-4.25,8.87,8.87,0,0,0-10.62,0,5.14,5.14,0,0,0-2.26,4.13,5.47,5.47,0,0,0,2.2,4.37,8.15,8.15,0,0,0,5.34,1.8,8.25,8.25,0,0,0,5.34-1.79A5.32,5.32,0,0,0,981.5,941.89Z" transform="translate(-431.49 -23.33)"/><path class="cls-5" d="M1011.65,932.77h4.67v17.4a8.15,8.15,0,0,1-3.31,6.54,12.27,12.27,0,0,1-8,2.69,14.06,14.06,0,0,1-6.56-1.55,9.44,9.44,0,0,1-4.39-4.71H999a7.31,7.31,0,0,0,6.18,2.94,7,7,0,0,0,4.58-1.55,4.67,4.67,0,0,0,1.9-3.72v-3.43a11.45,11.45,0,0,1-16.3,1.15,8.8,8.8,0,0,1-3.23-6.78,8.66,8.66,0,0,1,3.14-6.7,10.89,10.89,0,0,1,7.48-2.79,10.6,10.6,0,0,1,8.9,4.33v-3.82Zm0.66,9a5.2,5.2,0,0,0-2.21-4.26,8.67,8.67,0,0,0-5.48-1.71,8.32,8.32,0,0,0-5.27,1.78,5.15,5.15,0,0,0-2.28,4.11,5.45,5.45,0,0,0,2.25,4.35,8.24,8.24,0,0,0,5.35,1.82,8.4,8.4,0,0,0,5.4-1.78A5.34,5.34,0,0,0,1012.31,941.8Z" transform="translate(-431.49 -23.33)"/><path class="cls-5" d="M1042.68,932.77h4.67v17.4a8.15,8.15,0,0,1-3.31,6.54,12.27,12.27,0,0,1-8,2.69,14.06,14.06,0,0,1-6.56-1.55,9.44,9.44,0,0,1-4.39-4.71H1030a7.31,7.31,0,0,0,6.18,2.94,7,7,0,0,0,4.58-1.55,4.67,4.67,0,0,0,1.9-3.72v-3.43a11.45,11.45,0,0,1-16.3,1.15,8.8,8.8,0,0,1-3.23-6.78,8.66,8.66,0,0,1,3.14-6.7,10.89,10.89,0,0,1,7.48-2.79,10.6,10.6,0,0,1,8.9,4.33v-3.82Zm0.66,9a5.2,5.2,0,0,0-2.21-4.26,8.67,8.67,0,0,0-5.48-1.71,8.32,8.32,0,0,0-5.27,1.78,5.15,5.15,0,0,0-2.28,4.11,5.45,5.45,0,0,0,2.25,4.35,8.24,8.24,0,0,0,5.35,1.82,8.4,8.4,0,0,0,5.4-1.78A5.34,5.34,0,0,0,1043.34,941.8Z" transform="translate(-431.49 -23.33)"/><path class="cls-5" d="M1054,926.81a2.56,2.56,0,0,1,1.1-2.05,4.08,4.08,0,0,1,2.61-.87,4,4,0,0,1,2.57.87,2.5,2.5,0,0,1,0,4.12,4,4,0,0,1-2.57.86,4.11,4.11,0,0,1-2.61-.86A2.55,2.55,0,0,1,1054,926.81Zm1.34,6H1060V950.9h-4.72V932.77Z" transform="translate(-431.49 -23.33)"/><path class="cls-5" d="M1065.91,941.75q0-3.71,3.67-6.6a13.21,13.21,0,0,1,8.42-2.89,13.49,13.49,0,0,1,8.54,2.85q3.65,2.84,3.65,6.65a8.53,8.53,0,0,1-3.58,6.73,12.75,12.75,0,0,1-8.28,2.91,13.76,13.76,0,0,1-8.72-2.88Q1065.91,945.64,1065.91,941.75Zm19.66,0a5,5,0,0,0-2.2-4,8.26,8.26,0,0,0-5.22-1.71,8.48,8.48,0,0,0-5.34,1.73,5.09,5.09,0,0,0-2.24,4.13,5,5,0,0,0,2.27,4,8.55,8.55,0,0,0,5.31,1.72,8.11,8.11,0,0,0,5.19-1.76A5.14,5.14,0,0,0,1085.57,941.77Z" transform="translate(-431.49 -23.33)"/></svg>