<?xml version="1.0" encoding="utf-8"?>
<!-- Generator: Adobe Illustrator 19.2.1, SVG Export Plug-In . SVG Version: 6.00 Build 0)  -->
<svg version="1.1" id="Capa_1" xmlns="http://www.w3.org/2000/svg" xmlns:xlink="http://www.w3.org/1999/xlink" x="0px" y="0px"
	 viewBox="0 0 1073.6 1052" style="enable-background:new 0 0 1073.6 1052;" xml:space="preserve">
<style type="text/css">
	.st0{stroke:#056934;stroke-width:8;stroke-miterlimit:10;}
	.st1{fill:none;stroke:#E81A1A;stroke-width:8;stroke-miterlimit:10;}
	.st2{fill:#1C582B;}
	.st3{fill:#E81A1A;}
	.st4{fill:#FFFFFF;}
	.st5{enable-background:new    ;}
</style>
<title>logo_reggio_calabria</title>
<g>
	<path class="st0" d="M4.9,482C-7.8,147.9,117-43.9,571.6,14.3C899.5,29.6,1083.8,143,1068.8,482c9.7,414.2-184.5,580.7-528.7,565
		C137,1050.6-3.5,867.1,4.9,482z"/>
	<path class="st0" d="M27.8,483.9C15.7,164.3,135.1-19.3,570.1,36.4c313.8,14.6,490.1,123.1,475.8,447.5
		c9.3,396.3-176.5,555.7-505.9,540.6C154.2,1027.9,19.9,852.4,27.8,483.9z"/>
	<line class="st1" x1="338.2" y1="297.7" x2="213" y2="536.5"/>
	<path class="st1" d="M251.3,282.1c70.4-32.5,143.9-39.6,220.8-19.1c58,24.1,48.7,51.2,0,80c-42.4,30.8-126.9,53.4-220.8,74.2
		L512,485.5"/>
	<path class="st1" d="M354.7,727.1c-552.8,121.7,255.6-379,86.9-116.5"/>
	<path class="st1" d="M446.9,680.2c-40-8.7-60.8,62.6-7,15.7c1.7,20.9,11.6,20.9,29.5,0"/>
	<path class="st1" d="M613.8,680.2c-40-8.7-60.8,62.6-7,15.7c1.7,20.9,11.6,20.9,29.6,0"/>
	<path class="st1" d="M905.8,680.2c-40-8.7-60.8,62.6-7,15.7c1.7,20.9,11.6,20.9,29.6,0"/>
	<path class="st1" d="M536.2,610.6l-27.6,68.8c-17.8,37.9-7,43.4,32.6,16.3"/>
	<path class="st1" d="M700.7,610.6l-30.4,68.8c-21.1,33.2,0,40.7,15.2,22.5c9.3-12.7,8.1-23.5,0-33"/>
	<path class="st1" d="M819.5,683.8c-24.3,33-7.2,41.8,21.1,11.9"/>
	<line class="st1" x1="745.5" y1="679.4" x2="728.5" y2="711.6"/>
	<path class="st1" d="M771.6,684.2c-11.2-1.7-22.4,2.2-33.6,11.5"/>
	<path class="st1" d="M834.2,676.9c-2.9-7.6-11.1-7.6-14.7-15.2"/>
	<path class="st1" d="M740.8,408.2c-24.3,33-7.2,41.8,21.1,11.9"/>
	<path class="st1" d="M755.5,401.2c-2.9-7.6-11.1-7.6-14.7-15.2"/>
	<path class="st1" d="M500.3,423.2c2.3,9.2-38.8,26-51.3,12.3c-6.5-8.5-4.4-17.7,9.5-25.8c8.7-4,16.3-4.2,23.1-1.6
		c9.5,8.3-2.2,12.1-17.3,15.1"/>
	<path class="st1" d="M574.3,401.2c-43.2-3.5-70.1,63.1-13.6,15.9c-12.3,37.5-22.8,69.4-40,84.9c-13.5,14.3-79.2,23.2-47.8-11.7
		c33.7-26.5,81-50.9,123.9-70"/>
	<path class="st1" d="M520.7,502c-13.5,14.3-79.2,23.2-47.8-11.7"/>
	<path class="st1" d="M672.7,400.8c-43.2-3.5-70.1,63.1-13.6,15.9c-12.3,37.5-22.8,69.4-40,84.9c-13.4,14.3-79.2,23.2-47.8-11.7
		c33.7-26.5,81-50.9,123.9-70"/>
	<path class="st1" d="M835.3,408.9C755.5,402.9,802.3,482.1,835.3,408.9"/>
	<rect x="395.6" y="770.6" class="st2" width="97.8" height="23.5"/>
	<rect x="588.1" y="770.6" class="st3" width="97.8" height="23.5"/>
	<rect x="493.4" y="770.6" class="st4" width="97.8" height="23.5"/>
	<g class="st5">
		<path class="st4" d="M294.8,856.8h5l6.5,10.5l6.3-10.5h5l-11.4,18.8L294.8,856.8z"/>
	</g>
	<g class="st5">
		<path class="st4" d="M343.3,866.6H324c0.4,1.9,1.4,3.2,2.9,4.1c1.5,0.9,3.1,1.3,4.9,1.3c2.7,0,5-0.9,6.8-2.7l3.5,2.1
			c-2.6,2.7-6.1,4.1-10.5,4.1c-3.4,0-6.2-0.9-8.5-2.8s-3.4-4.1-3.4-6.9c0-2.6,1.1-4.8,3.4-6.7c2.3-1.9,5.1-2.8,8.4-2.8
			c3.3,0,6.1,1,8.4,2.9C342.2,861,343.4,863.5,343.3,866.6z M324.5,863.5h13.8c-1.5-2.5-3.8-3.7-6.8-3.7
			C328.2,859.8,325.9,861,324.5,863.5z"/>
		<path class="st4" d="M347.9,874.9v-18.1h4.7v3c1.4-1.2,2.6-2.1,3.7-2.7c1.1-0.6,2.4-0.8,3.7-0.8c2.1,0,3.8,0.5,5.3,1.6
			c1.5,1.1,2.2,2.4,2.2,3.9v13.1h-4.8v-12c0-1-0.4-1.8-1.2-2.4s-1.8-1-3-1c-1.6,0-3,0.5-4.1,1.6c-1.2,1.1-1.7,2.4-1.7,3.9v9.9H347.9
			z"/>
		<path class="st4" d="M392.5,846.4h4.7v28.5h-4.7v-3.8c-2.3,2.9-5.2,4.3-8.9,4.3c-3,0-5.5-0.9-7.6-2.8c-2.1-1.9-3.2-4.2-3.2-6.8
			c0-2.6,1.1-4.8,3.2-6.7c2.1-1.9,4.7-2.8,7.7-2.8c1.8,0,3.4,0.4,5,1.2s2.8,1.8,3.7,3.1V846.4z M393,865.8c0-1.6-0.7-3-2.2-4.2
			c-1.5-1.2-3.3-1.8-5.3-1.8c-2.1,0-3.9,0.6-5.4,1.7c-1.5,1.2-2.2,2.6-2.2,4.3c0,1.6,0.8,3,2.3,4.2c1.5,1.2,3.3,1.8,5.3,1.8
			c2.1,0,3.9-0.6,5.4-1.8C392.3,868.9,393,867.5,393,865.8z"/>
		<path class="st4" d="M403.6,850.8c0-0.8,0.4-1.5,1.1-2.1c0.7-0.6,1.6-0.9,2.6-0.9c1,0,1.8,0.3,2.6,0.9c0.7,0.6,1.1,1.3,1.1,2.1
			c0,0.8-0.4,1.5-1.1,2.1c-0.7,0.6-1.6,0.9-2.6,0.9c-1,0-1.9-0.3-2.6-0.9C404,852.3,403.6,851.6,403.6,850.8z M405,856.8h4.7v18.1
			H405V856.8z"/>
		<path class="st4" d="M418.4,851.5h4.8v5.3h4.7v3.5h-4.7v14.6h-4.8v-14.6h-3.8v-3.5h3.8V851.5z"/>
		<path class="st4" d="M451.2,856.8h4.8v18.1h-4.8v-3.6c-2.3,2.7-5.2,4.1-8.7,4.1c-3,0-5.5-0.9-7.6-2.8c-2.1-1.9-3.2-4.2-3.2-6.8
			c0-2.5,1.1-4.8,3.2-6.6c2.1-1.9,4.6-2.8,7.5-2.8c1.8,0,3.5,0.4,5.1,1.2c1.6,0.8,2.8,1.8,3.7,3V856.8z M451.8,865.9
			c0-1.7-0.7-3.1-2.2-4.3c-1.5-1.2-3.3-1.8-5.3-1.8c-2,0-3.8,0.6-5.3,1.8c-1.5,1.2-2.3,2.5-2.3,4.1c0,1.7,0.7,3.2,2.2,4.4
			s3.2,1.8,5.3,1.8c2.1,0,3.9-0.6,5.3-1.8C451.1,868.9,451.8,867.5,451.8,865.9z"/>
		<path class="st4" d="M497.6,846.4h4.7v28.5h-4.7v-3.8c-2.3,2.9-5.2,4.3-8.9,4.3c-3,0-5.5-0.9-7.6-2.8c-2.1-1.9-3.2-4.2-3.2-6.8
			c0-2.6,1.1-4.8,3.2-6.7c2.1-1.9,4.7-2.8,7.7-2.8c1.8,0,3.4,0.4,5,1.2s2.8,1.8,3.7,3.1V846.4z M498.2,865.8c0-1.6-0.7-3-2.2-4.2
			c-1.5-1.2-3.3-1.8-5.3-1.8c-2.1,0-3.9,0.6-5.4,1.7c-1.5,1.2-2.2,2.6-2.2,4.3c0,1.6,0.8,3,2.3,4.2c1.5,1.2,3.3,1.8,5.3,1.8
			c2.1,0,3.9-0.6,5.4-1.8C497.4,868.9,498.2,867.5,498.2,865.8z"/>
		<path class="st4" d="M508.8,850.8c0-0.8,0.4-1.5,1.1-2.1c0.7-0.6,1.6-0.9,2.6-0.9c1,0,1.8,0.3,2.6,0.9c0.7,0.6,1.1,1.3,1.1,2.1
			c0,0.8-0.4,1.5-1.1,2.1c-0.7,0.6-1.6,0.9-2.6,0.9c-1,0-1.9-0.3-2.6-0.9C509.1,852.3,508.8,851.6,508.8,850.8z M510.1,856.8h4.7
			v18.1h-4.7V856.8z"/>
		<path class="st4" d="M542.9,856.8v3.6c2.3-2.8,5.2-4.2,8.8-4.2c2.9,0,5.4,0.9,7.6,2.8c2.1,1.9,3.2,4.1,3.2,6.7
			c0,2.6-1.1,4.9-3.2,6.8c-2.1,1.9-4.7,2.9-7.6,2.9c-1.7,0-3.3-0.4-4.8-1.1s-2.8-1.7-3.8-3.1v12.1h-4.8v-26.6H542.9z M557.4,865.8
			c0-1.6-0.8-3-2.2-4.2c-1.5-1.2-3.3-1.8-5.3-1.8c-2.1,0-3.9,0.6-5.4,1.8c-1.5,1.2-2.3,2.6-2.3,4.2c0,1.7,0.7,3.1,2.2,4.3
			s3.2,1.8,5.3,1.8c2.1,0,3.9-0.6,5.4-1.8C556.6,868.9,557.4,867.4,557.4,865.8z"/>
	</g>
	<g class="st5">
		<path class="st4" d="M573.9,856.8v3.7c1.1-1.5,2.1-2.6,3.1-3.2c1-0.7,2.3-1,4-1c0.5,0,1.1,0.1,2,0.3l-1.5,3.8
			c-0.9-0.1-1.5-0.2-1.8-0.2c-1.6,0-3,0.5-4.1,1.4c-1.1,0.9-1.6,2-1.6,3.4v10h-4.8v-18.1H573.9z"/>
	</g>
	<g class="st5">
		<path class="st4" d="M584.9,865.8c0-2.5,1.2-4.7,3.7-6.6c2.4-1.9,5.3-2.9,8.4-2.9c3.3,0,6.1,0.9,8.5,2.8c2.4,1.9,3.7,4.1,3.7,6.6
			c0,2.5-1.2,4.8-3.6,6.7c-2.4,1.9-5.1,2.9-8.3,2.9c-3.3,0-6.3-1-8.7-2.9C586.1,870.6,584.9,868.4,584.9,865.8z M604.5,865.8
			c0-1.5-0.7-2.9-2.2-4c-1.5-1.1-3.2-1.7-5.2-1.7c-2.1,0-3.8,0.6-5.3,1.7s-2.2,2.5-2.2,4.1c0,1.5,0.8,2.9,2.3,4
			c1.5,1.1,3.3,1.7,5.3,1.7c2,0,3.7-0.6,5.2-1.8C603.8,868.7,604.5,867.3,604.5,865.8z"/>
		<path class="st4" d="M627.9,858.9l-3.2,2.2c-0.8-0.5-1.5-0.8-2.1-1.1c-0.6-0.2-1.3-0.4-2.1-0.4c-1.9,0-2.9,0.6-2.9,1.7
			c0,0.8,1.2,1.6,3.7,2.4s4.2,1.6,5.3,2.5s1.6,2,1.6,3.3c0,1.5-0.8,2.8-2.3,4c-1.6,1.1-3.4,1.7-5.5,1.7c-3.2,0-5.8-1.2-7.9-3.6
			l3.8-1.4c1.3,1,2.7,1.5,4.1,1.5c1,0,1.9-0.2,2.6-0.6c0.7-0.4,1.1-0.9,1.1-1.5c0-1-1.3-1.9-3.9-2.7c-2.6-0.8-4.4-1.6-5.4-2.5
			s-1.5-1.8-1.5-3.1c0-1.5,0.7-2.8,2.1-3.8c1.4-1,3.2-1.5,5.3-1.5S625.3,857.2,627.9,858.9z"/>
		<path class="st4" d="M650,869.4v4.4c-2.4,1.1-4.8,1.7-7.1,1.7c-3.1,0-5.9-0.9-8.2-2.8c-2.4-1.9-3.5-4.1-3.5-6.5
			c0-2.8,1.2-5.1,3.5-7c2.3-1.9,5.3-2.8,8.8-2.8c2.1,0,4.3,0.4,6.5,1.3v4.3c-2.4-1.2-4.7-1.8-6.8-1.8c-2,0-3.7,0.6-5.2,1.7
			c-1.5,1.1-2.2,2.4-2.2,3.9c0,1.7,0.7,3.1,2.1,4.3c1.4,1.1,3.1,1.7,5.1,1.7C645,871.6,647.4,870.8,650,869.4z"/>
		<path class="st4" d="M653.8,850.8c0-0.8,0.4-1.5,1.1-2.1c0.7-0.6,1.6-0.9,2.6-0.9c1,0,1.8,0.3,2.6,0.9c0.7,0.6,1.1,1.3,1.1,2.1
			c0,0.8-0.4,1.5-1.1,2.1c-0.7,0.6-1.6,0.9-2.6,0.9c-1,0-1.9-0.3-2.6-0.9S653.8,851.6,653.8,850.8z M655.1,856.8h4.7v18.1h-4.7
			V856.8z"/>
		<path class="st4" d="M666.1,856.8h4.8V867c0,3.1,1.7,4.7,5.2,4.7c1.5,0,2.8-0.4,3.7-1.3c0.9-0.8,1.3-2,1.3-3.5v-10.2h4.7v10.8
			c0,2.3-0.9,4.1-2.8,5.6c-1.9,1.5-4.2,2.2-7.1,2.2c-2.9,0-5.3-0.7-7.1-2.2c-1.8-1.5-2.7-3.4-2.7-5.7V856.8z"/>
		<path class="st4" d="M693.1,851.5h4.8v5.3h4.7v3.5h-4.7v14.6h-4.8v-14.6h-3.8v-3.5h3.8V851.5z"/>
		<path class="st4" d="M708.4,851.5h4.8v5.3h4.7v3.5h-4.7v14.6h-4.8v-14.6h-3.8v-3.5h3.8V851.5z"/>
		<path class="st4" d="M720.8,865.8c0-2.5,1.2-4.7,3.7-6.6c2.4-1.9,5.3-2.9,8.4-2.9c3.3,0,6.1,0.9,8.5,2.8c2.4,1.9,3.7,4.1,3.7,6.6
			c0,2.5-1.2,4.8-3.6,6.7c-2.4,1.9-5.1,2.9-8.3,2.9c-3.4,0-6.3-1-8.7-2.9C722.1,870.6,720.8,868.4,720.8,865.8z M740.5,865.8
			c0-1.5-0.7-2.9-2.2-4c-1.5-1.1-3.2-1.7-5.2-1.7c-2.1,0-3.8,0.6-5.3,1.7s-2.2,2.5-2.2,4.1c0,1.5,0.8,2.9,2.3,4
			c1.5,1.1,3.3,1.7,5.3,1.7c2,0,3.7-0.6,5.2-1.8C739.8,868.7,740.5,867.3,740.5,865.8z"/>
		<path class="st4" d="M788.4,866.6H769c0.4,1.9,1.4,3.2,2.9,4.1c1.5,0.9,3.1,1.3,4.9,1.3c2.7,0,5-0.9,6.8-2.7l3.5,2.1
			c-2.6,2.7-6.1,4.1-10.5,4.1c-3.4,0-6.2-0.9-8.5-2.8s-3.4-4.1-3.4-6.9c0-2.6,1.1-4.8,3.4-6.7c2.3-1.9,5.1-2.8,8.4-2.8
			c3.3,0,6.1,1,8.4,2.9C787.3,861,788.4,863.5,788.4,866.6z M769.5,863.5h13.8c-1.5-2.5-3.8-3.7-6.8-3.7
			C773.3,859.8,770.9,861,769.5,863.5z"/>
	</g>
	<g class="st5">
		<path class="st4" d="M440.9,900.7v3.9c-1.4-0.7-2.6-1.1-3.6-1.1c-0.8,0-1.5,0.2-2,0.7c-0.5,0.5-0.7,1.2-0.7,2.1v4.5h6.3v3.5h-6.3
			v14.6h-4.8v-14.6h-4.2v-3.5h4.2v-4.3c0-2.1,0.7-3.7,2-4.9c1.3-1.2,3.1-1.8,5.3-1.8C438.2,899.7,439.5,900,440.9,900.7z"/>
	</g>
	<g class="st5">
		<path class="st4" d="M443.5,919.8c0-2.5,1.2-4.7,3.7-6.6c2.4-1.9,5.3-2.9,8.4-2.9c3.3,0,6.1,0.9,8.5,2.8c2.4,1.9,3.7,4.1,3.7,6.6
			c0,2.5-1.2,4.8-3.6,6.7c-2.4,1.9-5.1,2.9-8.3,2.9c-3.4,0-6.3-1-8.7-2.9C444.8,924.6,443.5,922.4,443.5,919.8z M463.2,919.8
			c0-1.5-0.7-2.9-2.2-4c-1.5-1.1-3.2-1.7-5.2-1.7c-2.1,0-3.9,0.6-5.3,1.7s-2.2,2.5-2.2,4.1c0,1.5,0.8,2.9,2.3,4
			c1.5,1.1,3.3,1.7,5.3,1.7c2,0,3.7-0.6,5.2-1.8C462.4,922.7,463.2,921.3,463.2,919.8z"/>
	</g>
	<g class="st5">
		<path class="st4" d="M478.2,910.8v3.7c1.1-1.5,2.1-2.6,3.1-3.2c1-0.7,2.3-1,4-1c0.5,0,1.1,0.1,2,0.3l-1.5,3.8
			c-0.9-0.1-1.5-0.2-1.8-0.2c-1.6,0-3,0.5-4.1,1.4c-1.1,0.9-1.6,2-1.6,3.4v10h-4.8v-18.1H478.2z"/>
	</g>
	<g class="st5">
		<path class="st4" d="M492.3,928.9v-18.1h4.7v2.8c1.1-1.1,2.2-2,3.2-2.5s2.2-0.8,3.5-0.8c1.7,0,3.1,0.3,4.1,0.9
			c1,0.6,1.8,1.6,2.5,2.9c1.2-1.3,2.3-2.3,3.5-2.9c1.1-0.6,2.4-0.9,3.9-0.9c1.8,0,3.4,0.5,4.7,1.6c1.3,1.1,2,2.4,2,3.8v13.2h-4.8
			v-12.2c0-2-1.2-3-3.7-3c-1.4,0-2.6,0.5-3.6,1.5s-1.5,2.3-1.5,3.8v9.9h-4.8v-11.7c0-2.4-1.2-3.6-3.7-3.6c-1.4,0-2.7,0.5-3.7,1.5
			c-1,1-1.5,2.2-1.5,3.6v10.2H492.3z"/>
		<path class="st4" d="M549.4,910.8h4.8v18.1h-4.8v-3.6c-2.3,2.7-5.2,4.1-8.7,4.1c-3,0-5.5-0.9-7.6-2.8c-2.1-1.9-3.2-4.2-3.2-6.8
			c0-2.5,1.1-4.8,3.2-6.6c2.1-1.9,4.6-2.8,7.5-2.8c1.8,0,3.5,0.4,5.1,1.2c1.6,0.8,2.8,1.8,3.7,3V910.8z M550,919.9
			c0-1.7-0.7-3.1-2.2-4.3c-1.5-1.2-3.3-1.8-5.3-1.8c-2,0-3.8,0.6-5.3,1.8c-1.5,1.2-2.3,2.5-2.3,4.1c0,1.7,0.7,3.2,2.2,4.4
			c1.5,1.2,3.2,1.8,5.3,1.8c2.1,0,3.9-0.6,5.3-1.8C549.3,922.9,550,921.5,550,919.9z"/>
		<path class="st4" d="M580.2,910.8h4.7v17.4c0,2.6-1.1,4.7-3.3,6.5c-2.2,1.8-4.9,2.7-8,2.7c-2.4,0-4.6-0.5-6.6-1.5
			c-2-1-3.5-2.6-4.4-4.7h4.9c1.5,2,3.5,2.9,6.2,2.9c1.8,0,3.3-0.5,4.6-1.5c1.3-1,1.9-2.3,1.9-3.7v-3.4c-2.3,2.7-5.2,4-8.7,4
			c-2.9,0-5.4-1-7.6-2.9c-2.2-1.9-3.2-4.2-3.2-6.8s1-4.8,3.1-6.7c2.1-1.9,4.6-2.8,7.5-2.8c3.7,0,6.7,1.4,8.9,4.3V910.8z
			 M580.9,919.8c0-1.7-0.7-3.1-2.2-4.3c-1.5-1.1-3.3-1.7-5.5-1.7c-2,0-3.8,0.6-5.3,1.8c-1.5,1.2-2.3,2.6-2.3,4.1
			c0,1.7,0.8,3.1,2.3,4.4s3.3,1.8,5.4,1.8c2.1,0,3.9-0.6,5.4-1.8S580.9,921.5,580.9,919.8z"/>
		<path class="st4" d="M611.2,910.8h4.7v17.4c0,2.6-1.1,4.7-3.3,6.5c-2.2,1.8-4.9,2.7-8,2.7c-2.4,0-4.6-0.5-6.6-1.5
			c-2-1-3.5-2.6-4.4-4.7h4.9c1.5,2,3.5,2.9,6.2,2.9c1.8,0,3.3-0.5,4.6-1.5c1.3-1,1.9-2.3,1.9-3.7v-3.4c-2.3,2.7-5.2,4-8.7,4
			c-2.9,0-5.4-1-7.6-2.9c-2.2-1.9-3.2-4.2-3.2-6.8s1-4.8,3.1-6.7s4.6-2.8,7.5-2.8c3.7,0,6.7,1.4,8.9,4.3V910.8z M611.9,919.8
			c0-1.7-0.7-3.1-2.2-4.3c-1.5-1.1-3.3-1.7-5.5-1.7c-2,0-3.8,0.6-5.3,1.8c-1.5,1.2-2.3,2.6-2.3,4.1c0,1.7,0.8,3.1,2.3,4.4
			s3.3,1.8,5.4,1.8c2.1,0,3.9-0.6,5.4-1.8S611.9,921.5,611.9,919.8z"/>
		<path class="st4" d="M622.5,904.8c0-0.8,0.4-1.5,1.1-2.1c0.7-0.6,1.6-0.9,2.6-0.9c1,0,1.8,0.3,2.6,0.9c0.7,0.6,1.1,1.3,1.1,2.1
			c0,0.8-0.4,1.5-1.1,2.1c-0.7,0.6-1.6,0.9-2.6,0.9c-1,0-1.9-0.3-2.6-0.9S622.5,905.6,622.5,904.8z M623.9,910.8h4.7v18.1h-4.7
			V910.8z"/>
		<path class="st4" d="M634.5,919.8c0-2.5,1.2-4.7,3.7-6.6c2.4-1.9,5.3-2.9,8.4-2.9c3.3,0,6.1,0.9,8.5,2.8c2.4,1.9,3.7,4.1,3.7,6.6
			c0,2.5-1.2,4.8-3.6,6.7c-2.4,1.9-5.2,2.9-8.3,2.9c-3.4,0-6.3-1-8.7-2.9S634.5,922.4,634.5,919.8z M654.1,919.8
			c0-1.5-0.7-2.9-2.2-4c-1.5-1.1-3.2-1.7-5.2-1.7c-2.1,0-3.9,0.6-5.3,1.7s-2.2,2.5-2.2,4.1c0,1.5,0.8,2.9,2.3,4s3.3,1.7,5.3,1.7
			c2,0,3.7-0.6,5.2-1.8C653.4,922.7,654.1,921.3,654.1,919.8z"/>
	</g>
</g>
</svg>
