<svg id="Capa_1" data-name="Capa 1" xmlns="http://www.w3.org/2000/svg" viewBox="0 0 1451.37 290.94"><defs><style>.cls-1{fill:none;stroke:#e81a1a;stroke-miterlimit:10;stroke-width:8px;}</style></defs><title>solo_logo_reggio_calabria</title><line class="cls-1" x1="128.71" y1="50.28" x2="3.54" y2="289.08"/><path class="cls-1" d="M115.41,551.34c70.38-32.47,143.88-39.6,220.78-19.12,58,24.15,48.66,51.21,0,80-42.38,30.82-126.86,53.43-220.78,74.2l260.77,68.35" transform="translate(-73.62 -516.71)"/><path class="cls-1" d="M948.27,721.11c-552.83,121.69,255.55-379,86.92-116.48" transform="translate(-73.62 -516.71)"/><path class="cls-1" d="M1040.4,674.18c-40-8.69-60.85,62.58-7,15.65q2.61,31.29,29.55,0" transform="translate(-73.62 -516.71)"/><path class="cls-1" d="M1207.3,674.18c-40-8.69-60.85,62.58-7,15.65q2.61,31.29,29.55,0" transform="translate(-73.62 -516.71)"/><path class="cls-1" d="M1499.35,674.18c-40-8.69-60.85,62.58-7,15.65q2.61,31.29,29.55,0" transform="translate(-73.62 -516.71)"/><path class="cls-1" d="M1129.74,604.64l-27.62,68.79q-26.73,56.92,32.6,16.26" transform="translate(-73.62 -516.71)"/><path class="cls-1" d="M1294.22,604.64l-30.42,68.79c-21.11,33.22,0,40.73,15.21,22.47,9.3-12.67,8.08-23.46,0-33" transform="translate(-73.62 -516.71)"/><path class="cls-1" d="M1413.08,677.82c-24.3,33-7.17,41.77,21.08,11.87" transform="translate(-73.62 -516.71)"/><line class="cls-1" x1="1265.47" y1="156.72" x2="1248.41" y2="188.9"/><path class="cls-1" d="M1365.17,678.2q-16.79-2.49-33.57,11.5" transform="translate(-73.62 -516.71)"/><path class="cls-1" d="M1427.75,670.86c-2.93-7.61-11.08-7.61-14.67-15.23" transform="translate(-73.62 -516.71)"/><path class="cls-1" d="M604.94,677.43c-24.3,33-7.17,41.77,21.08,11.87" transform="translate(-73.62 -516.71)"/><path class="cls-1" d="M619.61,670.47c-2.93-7.61-11.08-7.61-14.67-15.23" transform="translate(-73.62 -516.71)"/><path class="cls-1" d="M364.4,692.5c2.3,9.23-38.79,26-51.35,12.26-6.52-8.47-4.43-17.72,9.45-25.75,8.73-4,16.35-4.24,23.14-1.58,9.48,8.28-2.17,12.15-17.28,15.07" transform="translate(-73.62 -516.71)"/><path class="cls-1" d="M438.44,670.47c-43.18-3.52-70.13,63.06-13.59,15.92-12.32,37.46-22.75,69.41-40,84.87-13.45,14.34-79.18,23.16-47.85-11.73,33.72-26.51,81-50.91,123.93-70" transform="translate(-73.62 -516.71)"/><path class="cls-1" d="M384.85,771.25c-13.45,14.34-79.18,23.16-47.85-11.73" transform="translate(-73.62 -516.71)"/><path class="cls-1" d="M536.79,670.07c-43.18-3.52-70.13,63.06-13.59,15.92-12.32,37.46-22.75,69.41-40,84.87C469.75,785.2,404,794,435.35,759.13c33.72-26.51,81-50.91,123.93-70" transform="translate(-73.62 -516.71)"/><path class="cls-1" d="M699.41,678.17c-79.81-6-33,73.2,0,0" transform="translate(-73.62 -516.71)"/></svg>