<svg id="Capa_1" data-name="Capa 1" xmlns="http://www.w3.org/2000/svg" viewBox="0 0 130.26 151.03">
  <defs>
    <style>
      .cls-1 {
        fill: #ec3237;
      }

      .cls-2 {
        fill: #fff;
      }

      .cls-3 {
        fill: #211915;
      }

      .cls-4 {
        fill: #f3d400;
        stroke: #fbee92;
        stroke-miterlimit: 10;
        stroke-width: 0.7px;
      }

      .cls-5 {
        fill: #363435;
      }
    </style>
  </defs>
  <title>sin-tacc</title>
  <g>
    <circle class="cls-1" cx="65.13" cy="85.9" r="65.13"/>
    <circle class="cls-2" cx="66.32" cy="86.97" r="48.13"/>
    <path class="cls-3" d="M182.27,149.2s10.31,5.93,6.36,19.53c0,0,1.76-3.29,9-4.61,0,0,3.29,5.93-1.76,14.92a7.45,7.45,0,0,1,2.81-.79s3.64,6.8-1.6,15.18a15.64,15.64,0,0,1,2.55-.92s7.66,12.82-11.06,22.38c0,0-5.3.79-11.84-5.1a19.13,19.13,0,0,1-4.45,17.27s-7.66,2.94-12.37,0c0,0-3.21,7.85-6.48,9.62,0,0-5.89,4.78-10.93-2.55V233.6s-10.4,1-15.11-8.11a2.49,2.49,0,0,1,1.64-1.24s-7.39-1.7-9.49-7.52c0,0,3.34-2.62,6.28-2.81,0,0-8.24-5.5-6.28-14.66a14.66,14.66,0,0,1,13.22,8.57s1.37-5,3.86-6.61a13.88,13.88,0,0,1,6.48,10.34l1.5-1.64s3.66,2.36,5,5.43l2.62-1s-7.13-3.27-9.36-10.6l2.09-1s-7.92-4.19-8.7-10.86a16.29,16.29,0,0,1,8.24-1.31l0.39,0.07s-8.64-5.43-4.65-18.06c0,0,10,1.18,12.5,13.15L153,186a17.49,17.49,0,0,1,5.69-7s5.56,3.86,4.84,13.09l2.09-1.64s5.37,3.6,4.65,13.35l2.22-1.37a27.65,27.65,0,0,1,0-7.33l2.81,0.07a16.62,16.62,0,0,1-4.06-14.4,6,6,0,0,1,2.42-.07,16.46,16.46,0,0,1-3.73-14.59s6.15,0.39,8.77,2.68A17.63,17.63,0,0,1,182.27,149.2Z" transform="translate(-110.68 -149.2)"/>
    <g>
      <path class="cls-4" d="M182.44,152.4s-7.85,11.52,1.7,19.5C184.14,171.9,192.45,162.15,182.44,152.4Z" transform="translate(-110.68 -149.2)"/>
      <path class="cls-4" d="M171.87,168.8s0.09,13.94,12.48,15.08C184.35,183.88,185.65,171.13,171.87,168.8Z" transform="translate(-110.68 -149.2)"/>
      <path class="cls-4" d="M196,166.84s2.37,13.73-9.63,17C186.34,183.88,182.82,171.56,196,166.84Z" transform="translate(-110.68 -149.2)"/>
      <path class="cls-4" d="M173.31,182.8s0.09,13.94,12.48,15.08C185.79,197.88,187.09,185.13,173.31,182.8Z" transform="translate(-110.68 -149.2)"/>
      <path class="cls-4" d="M197.42,180.84s2.37,13.73-9.63,17C187.78,197.88,184.26,185.56,197.42,180.84Z" transform="translate(-110.68 -149.2)"/>
      <path class="cls-4" d="M174.36,197s0.09,13.94,12.48,15.08C186.84,212.08,188.14,199.33,174.36,197Z" transform="translate(-110.68 -149.2)"/>
      <path class="cls-4" d="M198.46,195s2.37,13.73-9.63,17C188.83,212.08,185.31,199.76,198.46,195Z" transform="translate(-110.68 -149.2)"/>
    </g>
    <g>
      <path class="cls-4" d="M141.47,175.16s-2.33,12.95,9,16.15C150.45,191.31,153.86,179.71,141.47,175.16Z" transform="translate(-110.68 -149.2)"/>
      <path class="cls-4" d="M138.9,192.87s5.44,12,16.56,8.18C155.47,201,151.67,189.57,138.9,192.87Z" transform="translate(-110.68 -149.2)"/>
      <path class="cls-4" d="M158.92,181.89s7.33,10.92-1.74,18.39C157.18,200.28,149.4,191,158.92,181.89Z" transform="translate(-110.68 -149.2)"/>
      <path class="cls-4" d="M145.54,204.38s5.44,12,16.56,8.18C162.1,212.56,158.31,201.08,145.54,204.38Z" transform="translate(-110.68 -149.2)"/>
      <path class="cls-4" d="M165.55,193.4s7.33,10.92-1.74,18.39C163.82,211.8,156,202.54,165.55,193.4Z" transform="translate(-110.68 -149.2)"/>
      <path class="cls-4" d="M151.91,216.21s5.44,12,16.56,8.18C168.47,224.4,164.68,212.91,151.91,216.21Z" transform="translate(-110.68 -149.2)"/>
      <path class="cls-4" d="M171.93,205.23s7.33,10.92-1.74,18.39C170.19,223.63,162.41,214.37,171.93,205.23Z" transform="translate(-110.68 -149.2)"/>
    </g>
    <g>
      <path class="cls-4" d="M120.75,202s0.86,11.38,11,11.6C131.8,213.65,132.13,203.16,120.75,202Z" transform="translate(-110.68 -149.2)"/>
      <path class="cls-4" d="M122.37,217.93s7.18,8.87,15.69,3.26C138.05,221.2,132.37,212.38,122.37,217.93Z" transform="translate(-110.68 -149.2)"/>
      <path class="cls-4" d="M136.78,204.36s8.53,7.57,2.54,15.82C139.33,220.18,130.78,214.1,136.78,204.36Z" transform="translate(-110.68 -149.2)"/>
      <path class="cls-4" d="M130.44,226.15s7.18,8.87,15.69,3.26C146.13,229.42,140.45,220.6,130.44,226.15Z" transform="translate(-110.68 -149.2)"/>
      <path class="cls-4" d="M144.86,212.58s8.53,7.57,2.55,15.82C147.4,228.4,138.86,222.32,144.86,212.58Z" transform="translate(-110.68 -149.2)"/>
      <path class="cls-4" d="M153,222s8.53,7.57,2.55,15.82C155.59,237.8,147,231.72,153,222Z" transform="translate(-110.68 -149.2)"/>
    </g>
    <path class="cls-5" d="M192.3,243.59s2.62,18.26,6.36,32.61V247.65a1.28,1.28,0,0,1,.61-1.44l4.74-2.63a1.24,1.24,0,0,1,1.53,1l7.66,18.67a0.93,0.93,0,0,1-.36,1.39s-0.95.51-2.19-1.17-8.75-11.38-8.75-11.38l0.29,34.64s0.22,2.41-3.57,3a5.44,5.44,0,0,1-4.89-2.33l-15.53-14.15-5.69,16a1,1,0,0,1-1.24.54s-1,.12-0.58-2.21l0.73-17.07a1.24,1.24,0,0,1,1.46-1.24l4.36,0.15a1.6,1.6,0,0,1,1.76.66l12.47,11.16s-7.15-12.32-21.66-24.94l3.57-1.6s15.75,16.55,19.91,23.56l0.29-.15s-11.09-23.85-12.91-27l3.3-1.46,11.51,25.52,0.44,0.35s-3.21-9.76-6.2-29.3Z" transform="translate(-110.68 -149.2)"/>
    <polygon class="cls-1" points="8.57 96.19 106.26 45.84 118.55 79.2 23.96 126.33 8.57 96.19"/>
    <g>
      <path class="cls-2" d="M130.25,260.21c0.69,1.46,1.74,1.55,3.41.76,1.43-.68,1.73-1.57,1.38-2.31-0.64-1.35-2.77-.53-4.41-0.35-2,.19-3.78-0.05-4.72-2-1.46-3.08.71-5.72,3.43-7,2.89-1.37,5.85-1.47,7.33,1.89l-3.54,1.68a1.43,1.43,0,0,0-1-.88,2.58,2.58,0,0,0-1.6.32c-0.87.41-1.62,1.21-1.21,2.07s1,0.64,3.15.25,4.76-.44,6,2.23c1.15,2.42,0,5.47-4,7.35-3.23,1.53-6.28,1-7.76-2.26Z" transform="translate(-110.68 -149.2)"/>
      <path class="cls-2" d="M141.42,246.89l-3.23,1.53-0.66-2.72,3.23-1.53Zm-2.91,2.9,3.23-1.53,2.63,10.85-3.23,1.53Z" transform="translate(-110.68 -149.2)"/>
      <path class="cls-2" d="M143.9,247.23l3.23-1.53,0.3,1.33,0,0a4.67,4.67,0,0,1,2.7-3.1,2.88,2.88,0,0,1,4.15,1.43,12.41,12.41,0,0,1,.67,2.29l1.31,5.81L153.07,255l-1.36-5.76a7.27,7.27,0,0,0-.41-1.35,1.22,1.22,0,0,0-1.75-.64c-2,.95-1.33,2.94-0.91,4.72l1.11,4.6-3.24,1.53Z" transform="translate(-110.68 -149.2)"/>
      <path class="cls-2" d="M171.72,233.22l-4,1.89,2.77,11.6L167,248.39l-2.77-11.59-4,1.89-0.83-3.33,11.53-5.47Z" transform="translate(-110.68 -149.2)"/>
      <path class="cls-2" d="M172.86,242.42l2.61-1.24,0.66,2.76-2.61,1.24Z" transform="translate(-110.68 -149.2)"/>
      <path class="cls-2" d="M190.83,234l2.61-1.24,0.66,2.76-2.61,1.24Z" transform="translate(-110.68 -149.2)"/>
      <path class="cls-2" d="M207.61,226l2.61-1.24,0.66,2.76-2.61,1.24Z" transform="translate(-110.68 -149.2)"/>
      <path class="cls-2" d="M224.87,217.46l2.61-1.24,0.66,2.76-2.61,1.24Z" transform="translate(-110.68 -149.2)"/>
      <path class="cls-2" d="M178.59,226.24l3.57-1.69,8.67,12.53-3.56,1.69-1.48-2.28L181,238.74l-0.22,3.08-3.71,1.76Zm2.56,9.23,3.1-1.47-2.83-4.64,0,0Z" transform="translate(-110.68 -149.2)"/>
      <path class="cls-2" d="M201.4,221.41c-0.44-1.33-1.61-2-3.26-1.23-2.68,1.27-2.22,4.85-1.2,7,0.83,1.75,2,2.84,4,1.89a3.18,3.18,0,0,0,1.74-3.76l3.54-1.68c0.89,3.84-.43,6.71-4.39,8.58-2.15,1-6.07,1.55-8.46-3.49-2.07-4.38-1.12-9.3,3.48-11.48,3.4-1.61,6.46-1.11,8.12,2.49Z" transform="translate(-110.68 -149.2)"/>
      <path class="cls-2" d="M219,213.09c-0.44-1.33-1.61-2-3.26-1.23-2.68,1.27-2.22,4.85-1.2,7,0.83,1.75,2,2.84,4,1.89A3.18,3.18,0,0,0,220.2,217l3.54-1.68c0.89,3.84-.43,6.7-4.39,8.58-2.15,1-6.07,1.55-8.46-3.49-2.07-4.38-1.12-9.3,3.48-11.48,3.4-1.61,6.46-1.11,8.12,2.49Z" transform="translate(-110.68 -149.2)"/>
    </g>
  </g>
</svg>
