<svg id="Capa_1" data-name="Capa 1" xmlns="http://www.w3.org/2000/svg" viewBox="0 0 346.27 401.49">
  <defs>
    <style>
      .cls-1 {
        fill: #ec3237;
      }

      .cls-2 {
        fill: #fff;
      }

      .cls-3 {
        fill: #211915;
      }

      .cls-4 {
        fill: #f3d400;
        stroke: #fbee92;
        stroke-miterlimit: 10;
        stroke-width: 0.7px;
      }

      .cls-5 {
        fill: #363435;
      }
    </style>
  </defs>
  <title>sin-tacc</title>
  <circle class="cls-1" cx="173.13" cy="228.36" r="173.13"/>
  <circle class="cls-2" cx="176.31" cy="231.2" r="127.95"/>
  <path class="cls-3" d="M203.31,42.45s27.42,15.75,16.92,51.92c0,0,4.67-8.75,23.92-12.25,0,0,8.75,15.75-4.67,39.67,0,0,4.58-2.29,7.47-2.11,0,0,9.67,18.09-4.24,40.35,0,0,5.57-2.44,6.78-2.44,0,0,20.35,34.09-29.4,59.49,0,0-14.09,2.09-31.48-13.57,0,0,7.31,25-11.83,45.92,0,0-20.35,7.83-32.87,0,0,0-8.52,20.87-17.22,25.57,0,0-15.65,12.7-29-6.78v-1.39S70,269.44,57.46,245.26c0,0,1.57-3,4.35-3.3,0,0-19.66-4.52-25.22-20,0,0,8.87-7,16.7-7.48,0,0-21.92-14.61-16.7-39,0,0,23.31-1.22,35.14,22.79,0,0,3.65-13.22,10.26-17.57,0,0,14.61,7.65,17.22,27.48l4-4.35s9.74,6.26,13.39,14.44l7-2.61s-19-8.7-24.87-28.18l5.57-2.78s-21-11.13-23.13-28.87A43.3,43.3,0,0,1,103,152.38l1,0.17s-23-14.44-12.35-48c0,0,26.61,3.13,33.22,35l0.52,0.87a46.5,46.5,0,0,1,15.13-18.61s14.78,10.26,12.87,34.79L159,152.2s14.26,9.57,12.35,35.48L177.3,184s-1.57-11.48,0-19.48l7.48,0.17s-15-14.26-10.78-38.27a15.92,15.92,0,0,1,6.44-.17s-15-14.79-9.91-38.79c0,0,16.35,1,23.31,7.13C193.83,94.63,179.91,67.67,203.31,42.45Z" transform="translate(-13 -42.45)"/>
  <g>
    <path class="cls-4" d="M203.74,51s-20.87,30.61,4.52,51.83C208.26,102.8,230.35,76.89,203.74,51Z" transform="translate(-13 -42.45)"/>
    <path class="cls-4" d="M175.65,94.57s0.23,37.05,33.18,40.08C208.84,134.64,212.28,100.76,175.65,94.57Z" transform="translate(-13 -42.45)"/>
    <path class="cls-4" d="M239.73,89.35s6.3,36.51-25.6,45.3C214.13,134.64,204.77,101.9,239.73,89.35Z" transform="translate(-13 -42.45)"/>
    <path class="cls-4" d="M179.48,131.79s0.23,37.05,33.18,40.08C212.66,171.87,216.11,138,179.48,131.79Z" transform="translate(-13 -42.45)"/>
    <path class="cls-4" d="M243.56,126.57s6.3,36.51-25.6,45.3C218,171.87,208.6,139.12,243.56,126.57Z" transform="translate(-13 -42.45)"/>
    <path class="cls-4" d="M182.26,169.53s0.23,37.05,33.18,40.08C215.45,209.61,218.89,175.73,182.26,169.53Z" transform="translate(-13 -42.45)"/>
    <path class="cls-4" d="M246.34,164.32s6.3,36.51-25.6,45.3C220.74,209.61,211.38,176.87,246.34,164.32Z" transform="translate(-13 -42.45)"/>
  </g>
  <g>
    <path class="cls-4" d="M94.85,111.47s-6.19,34.42,23.86,42.93C118.72,154.4,127.77,123.55,94.85,111.47Z" transform="translate(-13 -42.45)"/>
    <path class="cls-4" d="M88,158.54s14.47,31.84,44,21.75C132,180.29,122,149.77,88,158.54Z" transform="translate(-13 -42.45)"/>
    <path class="cls-4" d="M141.23,129.36s19.5,29-4.62,48.9C136.61,178.25,115.93,153.64,141.23,129.36Z" transform="translate(-13 -42.45)"/>
    <path class="cls-4" d="M105.65,189.14s14.47,31.84,44,21.75C149.68,210.9,139.6,180.37,105.65,189.14Z" transform="translate(-13 -42.45)"/>
    <path class="cls-4" d="M158.86,160s19.5,29-4.62,48.9C154.25,208.86,133.57,184.25,158.86,160Z" transform="translate(-13 -42.45)"/>
    <path class="cls-4" d="M122.59,220.6s14.47,31.84,44,21.75C166.62,242.35,156.54,211.83,122.59,220.6Z" transform="translate(-13 -42.45)"/>
    <path class="cls-4" d="M175.8,191.42s19.5,29-4.62,48.9C171.18,240.31,150.51,215.7,175.8,191.42Z" transform="translate(-13 -42.45)"/>
  </g>
  <g>
    <path class="cls-4" d="M39.75,182.94S42,213.18,69.12,213.78C69.12,213.78,70,185.91,39.75,182.94Z" transform="translate(-13 -42.45)"/>
    <path class="cls-4" d="M44.06,225.17s19.07,23.58,41.7,8.68C85.76,233.85,70.65,210.42,44.06,225.17Z" transform="translate(-13 -42.45)"/>
    <path class="cls-4" d="M82.38,189.09s22.69,20.13,6.77,42.05C89.14,231.14,66.43,215,82.38,189.09Z" transform="translate(-13 -42.45)"/>
    <path class="cls-4" d="M65.52,247s19.07,23.58,41.7,8.68C107.22,255.7,92.12,232.27,65.52,247Z" transform="translate(-13 -42.45)"/>
    <path class="cls-4" d="M103.84,210.94s22.69,20.13,6.77,42.05C110.61,253,87.89,236.83,103.84,210.94Z" transform="translate(-13 -42.45)"/>
    <path class="cls-4" d="M125.62,235.93s22.69,20.13,6.77,42.05C132.39,278,109.67,261.82,125.62,235.93Z" transform="translate(-13 -42.45)"/>
  </g>
  <path class="cls-5" d="M230,293.37s7,48.54,16.9,86.69V304.18a3.4,3.4,0,0,1,1.61-3.82l12.6-7s2.71-1,4.07,2.73l20.36,49.63a2.47,2.47,0,0,1-1,3.68s-2.52,1.36-5.82-3.1-23.26-30.24-23.26-30.24l0.78,92.09s0.58,6.4-9.5,7.95c0,0-7.37,1.16-13-6.2l-41.29-37.61-15.12,42.46s-0.58,1.88-3.3,1.42c0,0-2.71.32-1.55-5.88l1.94-45.36s-0.2-3.3,3.88-3.3l11.6,0.39s2.36-1,4.68,1.74l33.15,29.66s-19-32.76-57.58-66.3l9.5-4.27s41.88,44,52.93,62.62l0.78-.39S203.87,321.69,199,313.35l8.76-3.88,30.59,67.85,1.16,0.94s-8.54-25.94-16.48-77.9Z" transform="translate(-13 -42.45)"/>
  <polygon class="cls-1" points="22.78 255.7 282.48 121.86 315.14 210.54 63.7 335.81 22.78 255.7"/>
  <g>
    <path class="cls-2" d="M65,337.55c1.85,3.89,4.62,4.12,9.07,2,3.79-1.8,4.6-4.16,3.66-6.13C76,329.84,70.39,332,66,332.48c-5.26.52-10-.14-12.55-5.45-3.89-8.2,1.9-15.21,9.12-18.64,7.69-3.65,15.55-3.91,19.48,5l-9.41,4.46A3.81,3.81,0,0,0,70,315.54a6.86,6.86,0,0,0-4.25.84c-2.32,1.1-4.3,3.21-3.22,5.49s2.67,1.7,8.37.67,12.64-1.16,16,5.92C90,334.89,86.8,343,76.24,348c-8.6,4.08-16.68,2.58-20.63-6Z" transform="translate(-13 -42.45)"/>
    <path class="cls-2" d="M94.71,302.15l-8.6,4.08L84.36,299l8.6-4.08ZM87,309.85l8.6-4.07,7,28.84-8.6,4.07Z" transform="translate(-13 -42.45)"/>
    <path class="cls-2" d="M101.29,303.06l8.6-4.07,0.8,3.52,0.1,0c0.42-2.37,2.58-6.05,7.18-8.23s8.9-.69,11,3.81a33,33,0,0,1,1.77,6.09l3.49,15.44-8.6,4.07-3.6-15.32a19.33,19.33,0,0,0-1.08-3.58,3.25,3.25,0,0,0-4.64-1.7c-5.31,2.52-3.54,7.81-2.42,12.54l3,12.23-8.6,4.07Z" transform="translate(-13 -42.45)"/>
    <path class="cls-2" d="M175.27,265.82l-10.62,5L172,301.68l-9.41,4.46-7.36-30.82-10.62,5-2.22-8.86L173,257Z" transform="translate(-13 -42.45)"/>
    <path class="cls-2" d="M178.28,290.26l6.93-3.29,1.76,7.33L180,297.59Z" transform="translate(-13 -42.45)"/>
    <path class="cls-2" d="M226,267.79L233,264.5l1.76,7.33-6.94,3.29Z" transform="translate(-13 -42.45)"/>
    <path class="cls-2" d="M270.65,246.6l6.93-3.29,1.76,7.33-6.94,3.29Z" transform="translate(-13 -42.45)"/>
    <path class="cls-2" d="M316.53,223.91l6.93-3.29,1.76,7.33-6.94,3.29Z" transform="translate(-13 -42.45)"/>
    <path class="cls-2" d="M193.51,247.26l9.5-4.5,23,33.31-9.45,4.48-3.93-6.07-12.7,6-0.57,8.2-9.86,4.68Zm6.79,24.53,8.24-3.91L201,255.54l-0.11,0Z" transform="translate(-13 -42.45)"/>
    <path class="cls-2" d="M254.16,234.43c-1.18-3.53-4.27-5.35-8.67-3.26-7.13,3.38-5.9,12.9-3.19,18.61,2.21,4.65,5.25,7.55,10.56,5a8.46,8.46,0,0,0,4.62-10l9.41-4.46c2.36,10.21-1.15,17.83-11.67,22.81-5.71,2.71-16.14,4.12-22.49-9.28-5.51-11.63-3-24.72,9.25-30.53,9.05-4.29,17.19-2.94,21.59,6.61Z" transform="translate(-13 -42.45)"/>
    <path class="cls-2" d="M300.81,212.31c-1.18-3.53-4.27-5.35-8.67-3.26-7.13,3.38-5.9,12.9-3.19,18.61,2.21,4.65,5.25,7.54,10.56,5a8.46,8.46,0,0,0,4.61-10l9.41-4.46c2.36,10.21-1.15,17.82-11.67,22.81-5.72,2.71-16.14,4.12-22.5-9.28-5.51-11.63-3-24.72,9.26-30.53,9.05-4.29,17.18-2.94,21.59,6.61Z" transform="translate(-13 -42.45)"/>
  </g>
</svg>
